HIERARCHY
ROOT Hips
{
  OFFSET 0.000 69.866 0.000
  CHANNELS 6 Xposition Yposition Zposition Zrotation Xrotation Yrotation
  JOINT LeftUpLeg
  {
    OFFSET 5.960 0.998 1.819
    CHANNELS 6 Xposition Yposition Zposition Zrotation Xrotation Yrotation
    JOINT LeftLeg
    {
      OFFSET 0.000 -36.014 0.000
      CHANNELS 6 Xposition Yposition Zposition Zrotation Xrotation Yrotation
      JOINT LeftFoot
      {
        OFFSET 0.000 -34.850 0.000
        CHANNELS 6 Xposition Yposition Zposition Zrotation Xrotation Yrotation
        End Site
        {
          OFFSET 0.000 0.000 10.021
        }
      }
    }
  }
  JOINT RightUpLeg
  {
    OFFSET -5.960 0.998 1.819
    CHANNELS 6 Xposition Yposition Zposition Zrotation Xrotation Yrotation
    JOINT RightLeg
    {
      OFFSET 0.000 -36.014 0.000
      CHANNELS 6 Xposition Yposition Zposition Zrotation Xrotation Yrotation
      JOINT RightFoot
      {
        OFFSET 0.000 -34.850 0.000
        CHANNELS 6 Xposition Yposition Zposition Zrotation Xrotation Yrotation
        End Site
        {
          OFFSET 0.000 0.000 10.021
        }
      }
    }
  }
  JOINT Spine
  {
    OFFSET 0.000 22.128 0.000
    CHANNELS 6 Xposition Yposition Zposition Zrotation Xrotation Yrotation
    JOINT Spine1
    {
      OFFSET 0.000 17.116 0.000
      CHANNELS 6 Xposition Yposition Zposition Zrotation Xrotation Yrotation
      JOINT LeftShoulder
      {
        OFFSET 1.800 -0.600 0.200
        CHANNELS 6 Xposition Yposition Zposition Zrotation Xrotation Yrotation
        JOINT LeftArm
        {
          OFFSET 13.897 0.000 0.000
          CHANNELS 6 Xposition Yposition Zposition Zrotation Xrotation Yrotation
          JOINT LeftForeArm
          {
            OFFSET 25.163 0.000 0.000
            CHANNELS 6 Xposition Yposition Zposition Zrotation Xrotation Yrotation
            JOINT LeftHand
            {
              OFFSET 22.246 0.000 0.000
              CHANNELS 6 Xposition Yposition Zposition Zrotation Xrotation Yrotation
              JOINT LeftHandThumb1
              {
                OFFSET 4.877 -1.044 3.608
                CHANNELS 6 Xposition Yposition Zposition Zrotation Xrotation Yrotation
                JOINT LeftHandThumb2
                {
                  OFFSET 2.665 -0.000 -0.000
                  CHANNELS 6 Xposition Yposition Zposition Zrotation Xrotation Yrotation
                  JOINT LeftHandThumb3
                  {
                    OFFSET 2.543 -0.000 0.000
                    CHANNELS 6 Xposition Yposition Zposition Zrotation Xrotation Yrotation
                    End Site
                    {
                      OFFSET 2.667 0.000 0.000
                    }
                  }
                }
              }
              JOINT LeftHandIndex1
              {
                OFFSET 9.232 -0.301 2.144
                CHANNELS 6 Xposition Yposition Zposition Zrotation Xrotation Yrotation
                JOINT LeftHandIndex2
                {
                  OFFSET 4.225 -0.000 0.000
                  CHANNELS 6 Xposition Yposition Zposition Zrotation Xrotation Yrotation
                  JOINT LeftHandIndex3
                  {
                    OFFSET 2.654 -0.000 -0.000
                    CHANNELS 6 Xposition Yposition Zposition Zrotation Xrotation Yrotation
                    End Site
                    {
                      OFFSET 1.958 0.000 0.000
                    }
                  }
                }
              }
              JOINT LeftHandMiddle1
              {
                OFFSET 8.920 0.000 0.000
                CHANNELS 6 Xposition Yposition Zposition Zrotation Xrotation Yrotation
                JOINT LeftHandMiddle2
                {
                  OFFSET 4.863 0.000 -0.000
                  CHANNELS 6 Xposition Yposition Zposition Zrotation Xrotation Yrotation
                  JOINT LeftHandMiddle3
                  {
                    OFFSET 2.765 0.000 -0.000
                    CHANNELS 6 Xposition Yposition Zposition Zrotation Xrotation Yrotation
                    End Site
                    {
                      OFFSET 2.006 0.000 0.000
                    }
                  }
                }
              }
              JOINT LeftHandRing1
              {
                OFFSET 8.689 -0.126 -2.087
                CHANNELS 6 Xposition Yposition Zposition Zrotation Xrotation Yrotation
                JOINT LeftHandRing2
                {
                  OFFSET 4.538 0.000 0.000
                  CHANNELS 6 Xposition Yposition Zposition Zrotation Xrotation Yrotation
                  JOINT LeftHandRing3
                  {
                    OFFSET 2.305 0.000 0.000
                    CHANNELS 6 Xposition Yposition Zposition Zrotation Xrotation Yrotation
                    End Site
                    {
                      OFFSET 1.923 0.000 -0.000
                    }
                  }
                }
              }
              JOINT LeftHandPinky1
              {
                OFFSET 8.391 -0.817 -3.758
                CHANNELS 6 Xposition Yposition Zposition Zrotation Xrotation Yrotation
                JOINT LeftHandPinky2
                {
                  OFFSET 3.044 0.000 -0.000
                  CHANNELS 6 Xposition Yposition Zposition Zrotation Xrotation Yrotation
                  JOINT LeftHandPinky3
                  {
                    OFFSET 1.975 -0.000 0.000
                    CHANNELS 6 Xposition Yposition Zposition Zrotation Xrotation Yrotation
                    End Site
                    {
                      OFFSET 1.667 0.000 0.000
                    }
                  }
                }
              }
            }
          }
        }
      }
      JOINT RightShoulder
      {
        OFFSET -1.800 -0.600 0.200
        CHANNELS 6 Xposition Yposition Zposition Zrotation Xrotation Yrotation
        JOINT RightArm
        {
          OFFSET -13.897 0.000 0.000
          CHANNELS 6 Xposition Yposition Zposition Zrotation Xrotation Yrotation
          JOINT RightForeArm
          {
            OFFSET -25.163 0.000 0.000
            CHANNELS 6 Xposition Yposition Zposition Zrotation Xrotation Yrotation
            JOINT RightHand
            {
              OFFSET -22.246 0.000 0.000
              CHANNELS 6 Xposition Yposition Zposition Zrotation Xrotation Yrotation
              JOINT RightHandThumb1
              {
                OFFSET -4.877 -1.044 3.608
                CHANNELS 6 Xposition Yposition Zposition Zrotation Xrotation Yrotation
                JOINT RightHandThumb2
                {
                  OFFSET -2.665 -0.000 0.000
                  CHANNELS 6 Xposition Yposition Zposition Zrotation Xrotation Yrotation
                  JOINT RightHandThumb3
                  {
                    OFFSET -2.543 -0.000 0.000
                    CHANNELS 6 Xposition Yposition Zposition Zrotation Xrotation Yrotation
                    End Site
                    {
                      OFFSET -2.667 0.000 0.000
                    }
                  }
                }
              }
              JOINT RightHandIndex1
              {
                OFFSET -9.232 -0.301 2.144
                CHANNELS 6 Xposition Yposition Zposition Zrotation Xrotation Yrotation
                JOINT RightHandIndex2
                {
                  OFFSET -4.225 0.000 -0.000
                  CHANNELS 6 Xposition Yposition Zposition Zrotation Xrotation Yrotation
                  JOINT RightHandIndex3
                  {
                    OFFSET -2.654 0.000 0.000
                    CHANNELS 6 Xposition Yposition Zposition Zrotation Xrotation Yrotation
                    End Site
                    {
                      OFFSET -1.958 -0.000 0.000
                    }
                  }
                }
              }
              JOINT RightHandMiddle1
              {
                OFFSET -8.920 0.000 0.000
                CHANNELS 6 Xposition Yposition Zposition Zrotation Xrotation Yrotation
                JOINT RightHandMiddle2
                {
                  OFFSET -4.863 0.000 0.000
                  CHANNELS 6 Xposition Yposition Zposition Zrotation Xrotation Yrotation
                  JOINT RightHandMiddle3
                  {
                    OFFSET -2.765 -0.000 0.000
                    CHANNELS 6 Xposition Yposition Zposition Zrotation Xrotation Yrotation
                    End Site
                    {
                      OFFSET -2.006 -0.000 -0.000
                    }
                  }
                }
              }
              JOINT RightHandRing1
              {
                OFFSET -8.689 -0.126 -2.087
                CHANNELS 6 Xposition Yposition Zposition Zrotation Xrotation Yrotation
                JOINT RightHandRing2
                {
                  OFFSET -4.538 0.000 0.000
                  CHANNELS 6 Xposition Yposition Zposition Zrotation Xrotation Yrotation
                  JOINT RightHandRing3
                  {
                    OFFSET -2.305 -0.000 0.000
                    CHANNELS 6 Xposition Yposition Zposition Zrotation Xrotation Yrotation
                    End Site
                    {
                      OFFSET -1.923 0.000 0.000
                    }
                  }
                }
              }
              JOINT RightHandPinky1
              {
                OFFSET -8.391 -0.817 -3.758
                CHANNELS 6 Xposition Yposition Zposition Zrotation Xrotation Yrotation
                JOINT RightHandPinky2
                {
                  OFFSET -3.044 0.000 -0.000
                  CHANNELS 6 Xposition Yposition Zposition Zrotation Xrotation Yrotation
                  JOINT RightHandPinky3
                  {
                    OFFSET -1.975 -0.000 0.000
                    CHANNELS 6 Xposition Yposition Zposition Zrotation Xrotation Yrotation
                    End Site
                    {
                      OFFSET -1.667 -0.000 0.000
                    }
                  }
                }
              }
            }
          }
        }
      }
      JOINT Neck
      {
        OFFSET 0.000 0.800 0.000
        CHANNELS 6 Xposition Yposition Zposition Zrotation Xrotation Yrotation
        JOINT Head
        {
          OFFSET 0.000 6.853 0.000
          CHANNELS 6 Xposition Yposition Zposition Zrotation Xrotation Yrotation
          End Site
          {
            OFFSET 0.000 12.857 0.000
          }
        }
      }
    }
  }
}
MOTION
Frames:	4
Frame Time:	0.033333
44.24349 79.48093 -205.57133 -1.93969 4.41427 -63.77189 8.30716 1.82690 1.99112 12.44047 8.07154 -12.00389 0.00144 -35.16625 -0.00485 -8.58577 -5.70206 17.46453 0.00609 -34.31979 0.00457 -13.02846 44.80640 18.18606 -3.35239 -0.55653 1.98394 -7.03507 -4.77556 -18.05788 0.00262 -38.45467 -0.00025 4.14412 9.61296 6.93998 -0.00190 -31.27719 -0.00289 -1.21099 29.38729 7.81392 0.01104 32.27578 -0.01100 -1.41745 1.19292 -2.12904 0.00803 23.72065 -0.00970 -1.69721 1.31365 -2.17582 1.55342 -0.46551 -0.01980 -16.41348 -0.13485 0.46385 14.70509 0.00465 -0.01174 -44.69570 8.04357 -7.54355 25.44978 -0.00456 0.01375 -18.66069 14.25926 -16.86570 26.66586 0.00460 0.00595 -8.82321 27.94935 4.58286 4.87701 -1.04400 3.60799 -41.57595 -8.45725 -7.72882 2.66500 -0.00001 -0.00001 0.00000 0.00000 5.00000 2.54301 -0.00001 0.00000 0.00001 0.00000 60.00000 9.23200 -0.30100 2.14399 -80.00000 -0.00000 0.00000 4.22502 -0.00001 0.00001 -90.00000 -0.00000 0.00000 2.65400 -0.00001 -0.00001 -70.00000 0.00000 -0.00000 8.92000 0.00000 0.00000 -80.00000 -0.00000 0.00000 4.86299 0.00000 -0.00001 -90.00000 -0.00000 0.00000 2.76499 0.00000 -0.00001 -70.00000 0.00000 -0.00000 8.68900 -0.12600 -2.08700 -80.00000 -0.00000 0.00000 4.53801 0.00000 0.00000 -90.00000 -0.00000 0.00000 2.30500 0.00000 0.00001 -70.00000 0.00000 -0.00000 8.39099 -0.81700 -3.75800 -80.00000 -0.00000 0.00000 3.04400 0.00001 -0.00001 -90.00000 -0.00000 0.00000 1.97499 -0.00001 0.00001 -70.00000 0.00000 -0.00000 -1.66580 -0.93921 -0.01376 29.47149 -0.22218 -0.39901 -17.10786 0.00832 0.00887 59.13293 4.65992 8.26002 -26.73620 -0.00541 0.00428 2.68678 0.64667 8.89929 -23.47069 0.00786 0.00700 -5.71342 -6.56674 14.07782 -4.87701 -1.04399 3.60800 24.66570 4.20854 9.07947 -2.66501 -0.00001 0.00001 0.00000 0.00000 -10.00000 -2.54301 -0.00002 0.00001 -0.00000 -0.00000 -15.00000 -9.23200 -0.30100 2.14400 20.00000 0.00000 0.00000 -4.22500 0.00001 -0.00001 25.00000 0.00000 0.00000 -2.65398 0.00001 0.00001 29.90550 2.49761 4.33288 -8.92001 0.00000 0.00000 20.00000 0.00000 0.00000 -4.86301 0.00000 0.00000 25.00000 0.00000 0.00000 -2.76499 -0.00001 0.00000 29.90549 2.49770 4.33288 -8.68901 -0.12600 -2.08700 20.00000 0.00000 0.00000 -4.53801 0.00000 0.00000 25.00000 0.00000 0.00000 -2.30501 -0.00002 0.00002 29.90549 2.49770 4.33288 -8.39100 -0.81704 -3.75800 20.00000 0.00000 0.00000 -3.04401 0.00001 -0.00001 25.00000 0.00000 0.00000 -1.97499 -0.00001 0.00000 29.90550 2.49761 4.33288 0.00492 0.78322 0.00544 0.00003 0.00732 0.00623 -0.00538 7.00149 0.01400 30.02371 28.27192 22.52782 
44.20678 79.48093 -205.55199 -1.94727 4.41132 -63.90699 8.32905 1.82690 1.98582 12.37078 8.18362 -11.96010 0.00144 -35.16625 -0.00485 -8.48665 -5.75340 17.44770 0.00609 -34.34866 0.00457 -12.89523 44.65960 18.04979 -3.36357 -0.55653 1.97815 -6.99031 -4.73689 -17.80176 0.00262 -38.55005 -0.00025 4.13254 9.55606 8.07204 -0.00190 -31.20033 -0.00289 -1.76494 25.05470 9.48821 0.01104 32.27578 -0.01100 -1.41891 1.18490 -2.07299 0.00803 23.72065 -0.00970 -1.69866 1.30926 -2.11942 1.55342 -0.46551 -0.01980 -16.45388 -0.13485 0.45680 14.70509 0.00465 -0.01174 -44.63343 8.07897 -7.56394 25.44978 -0.00456 0.01375 -18.70136 14.22039 -16.77721 26.68264 0.00460 0.00595 -8.43306 27.75767 4.14200 4.87701 -1.04400 3.60799 -41.57595 -8.45725 -7.72882 2.66500 -0.00001 -0.00001 0.00000 0.00000 5.00000 2.54301 -0.00001 0.00000 0.00001 0.00000 60.00000 9.23200 -0.30100 2.14399 -80.00000 -0.00000 0.00000 4.22502 -0.00001 0.00001 -90.00000 -0.00000 0.00000 2.65400 -0.00001 -0.00001 -70.00000 0.00000 -0.00000 8.92000 0.00000 0.00000 -80.00000 -0.00000 0.00000 4.86299 0.00000 -0.00001 -90.00000 -0.00000 0.00000 2.76499 0.00000 -0.00001 -70.00000 0.00000 -0.00000 8.68900 -0.12600 -2.08700 -80.00000 -0.00000 0.00000 4.53801 0.00000 0.00000 -90.00000 -0.00000 0.00000 2.30500 0.00000 0.00001 -70.00000 0.00000 -0.00000 8.39099 -0.81700 -3.75800 -80.00000 -0.00000 0.00000 3.04400 0.00001 -0.00001 -90.00000 -0.00000 0.00000 1.97499 -0.00001 0.00001 -70.00000 0.00000 -0.00000 -1.66580 -0.93921 -0.01376 29.51924 -0.22218 -0.39255 -17.13068 0.00832 0.00887 59.07149 4.76591 8.24623 -26.73620 -0.00541 0.00428 2.69313 0.84936 8.92470 -23.39051 0.00786 0.00700 -6.65791 -6.50423 15.53386 -4.87701 -1.04399 3.60800 24.66570 4.20854 9.07947 -2.66501 -0.00001 0.00001 0.00000 0.00000 -10.00000 -2.54301 -0.00002 0.00001 -0.00000 -0.00000 -15.00000 -9.23200 -0.30100 2.14400 20.00000 0.00000 0.00000 -4.22500 0.00001 -0.00001 25.00000 0.00000 0.00000 -2.65398 0.00001 0.00001 29.90550 2.49761 4.33288 -8.92001 0.00000 0.00000 20.00000 0.00000 0.00000 -4.86301 0.00000 0.00000 25.00000 0.00000 0.00000 -2.76499 -0.00001 0.00000 29.90549 2.49770 4.33288 -8.68901 -0.12600 -2.08700 20.00000 0.00000 0.00000 -4.53801 0.00000 0.00000 25.00000 0.00000 0.00000 -2.30501 -0.00002 0.00002 29.90549 2.49770 4.33288 -8.39100 -0.81704 -3.75800 20.00000 0.00000 0.00000 -3.04401 0.00001 -0.00001 25.00000 0.00000 0.00000 -1.97499 -0.00001 0.00000 29.90550 2.49761 4.33288 0.00492 0.78322 0.00544 0.00003 0.00732 0.00623 -0.00538 7.00149 0.01400 29.93641 28.05223 22.92921 
44.17205 79.48093 -205.53935 -1.94921 4.41045 -64.02756 8.34460 1.82690 1.98025 12.33755 8.27224 -11.92087 0.00144 -35.16625 -0.00485 -8.46099 -5.81945 17.47512 0.00609 -34.36776 0.00457 -13.13285 44.51895 18.41386 -3.37234 -0.55653 1.97254 -6.94335 -4.69635 -17.71272 0.00262 -38.63992 -0.00025 4.10239 9.49472 8.09027 -0.00190 -31.15083 -0.00289 10.20981 38.44240 -11.74500 0.01104 32.27901 -0.01100 -1.42021 1.17682 -2.02398 0.00803 23.72268 -0.00970 -1.69999 1.30389 -2.07009 1.55342 -0.46551 -0.01980 -16.48815 -0.14067 0.47519 14.70509 0.00465 -0.01174 -44.57430 8.11764 -7.57636 25.44978 -0.00456 0.01375 -18.71428 14.23506 -16.75404 26.69791 0.00460 0.00595 -8.14851 27.35116 3.77588 4.87701 -1.04400 3.60799 -41.57595 -8.45725 -7.72882 2.66500 -0.00001 -0.00001 0.00000 0.00000 5.00000 2.54301 -0.00001 0.00000 0.00001 0.00000 60.00000 9.23200 -0.30100 2.14399 -80.00000 -0.00000 0.00000 4.22502 -0.00001 0.00001 -90.00000 -0.00000 0.00000 2.65400 -0.00001 -0.00001 -70.00000 0.00000 -0.00000 8.92000 0.00000 0.00000 -80.00000 -0.00000 0.00000 4.86299 0.00000 -0.00001 -90.00000 -0.00000 0.00000 2.76499 0.00000 -0.00001 -70.00000 0.00000 -0.00000 8.68900 -0.12600 -2.08700 -80.00000 -0.00000 0.00000 4.53801 0.00000 0.00000 -90.00000 -0.00000 0.00000 2.30500 0.00000 0.00001 -70.00000 0.00000 -0.00000 8.39099 -0.81700 -3.75800 -80.00000 -0.00000 0.00000 3.04400 0.00001 -0.00001 -90.00000 -0.00000 0.00000 1.97499 -0.00001 0.00001 -70.00000 0.00000 -0.00000 -1.66580 -0.93921 -0.01376 29.55967 -0.23164 -0.40819 -17.14286 0.00832 0.00887 59.02386 4.85321 8.23704 -26.73620 -0.00541 0.00428 2.67357 0.92073 9.01323 -23.26988 0.00786 0.00700 -7.50812 -6.70355 16.89795 -4.87701 -1.04399 3.60800 24.66570 4.20854 9.07947 -2.66501 -0.00001 0.00001 0.00000 0.00000 -10.00000 -2.54301 -0.00002 0.00001 -0.00000 -0.00000 -15.00000 -9.23200 -0.30100 2.14400 20.00000 0.00000 0.00000 -4.22500 0.00001 -0.00001 25.00000 0.00000 0.00000 -2.65398 0.00001 0.00001 29.90550 2.49761 4.33288 -8.92001 0.00000 0.00000 20.00000 0.00000 0.00000 -4.86301 0.00000 0.00000 25.00000 0.00000 0.00000 -2.76499 -0.00001 0.00000 29.90549 2.49770 4.33288 -8.68901 -0.12600 -2.08700 20.00000 0.00000 0.00000 -4.53801 0.00000 0.00000 25.00000 0.00000 0.00000 -2.30501 -0.00002 0.00002 29.90549 2.49770 4.33288 -8.39100 -0.81704 -3.75800 20.00000 0.00000 0.00000 -3.04401 0.00001 -0.00001 25.00000 0.00000 0.00000 -1.97499 -0.00001 0.00000 29.90550 2.49761 4.33288 0.00492 0.78322 0.00544 0.00003 0.00732 0.00623 -0.00538 7.00149 0.01400 29.84139 27.80604 23.24757 
44.13448 79.48093 -205.52611 -1.93885 4.41770 -64.13319 8.35329 1.82690 1.97418 12.31715 8.34382 -11.89418 0.00144 -35.16625 -0.00485 -8.44031 -5.87833 17.51573 0.00609 -34.38458 0.00457 -13.24078 44.40224 18.59584 -3.37754 -0.55653 1.96672 -6.89972 -4.66652 -17.72689 0.00262 -38.71211 -0.00025 4.05891 9.43964 7.47610 -0.00190 -31.09349 -0.00289 16.74450 42.96473 -21.53752 0.01104 32.28655 -0.01100 -1.42093 1.17285 -1.99557 0.00803 23.72985 -0.00970 -1.70082 1.29894 -2.04120 1.55342 -0.46551 -0.01980 -16.54797 -0.16696 0.56183 14.70509 0.00465 -0.01174 -44.48930 8.17557 -7.60799 25.44978 -0.00456 0.01375 -18.73032 14.22128 -16.76301 26.69958 0.00460 0.00595 -8.29741 27.51103 3.50932 4.87701 -1.04400 3.60799 -41.57595 -8.45725 -7.72882 2.66500 -0.00001 -0.00001 0.00000 0.00000 5.00000 2.54301 -0.00001 0.00000 0.00001 0.00000 60.00000 9.23200 -0.30100 2.14399 -80.00000 -0.00000 0.00000 4.22502 -0.00001 0.00001 -90.00000 -0.00000 0.00000 2.65400 -0.00001 -0.00001 -70.00000 0.00000 -0.00000 8.92000 0.00000 0.00000 -80.00000 -0.00000 0.00000 4.86299 0.00000 -0.00001 -90.00000 -0.00000 0.00000 2.76499 0.00000 -0.00001 -70.00000 0.00000 -0.00000 8.68900 -0.12600 -2.08700 -80.00000 -0.00000 0.00000 4.53801 0.00000 0.00000 -90.00000 -0.00000 0.00000 2.30500 0.00000 0.00001 -70.00000 0.00000 -0.00000 8.39099 -0.81700 -3.75800 -80.00000 -0.00000 0.00000 3.04400 0.00001 -0.00001 -90.00000 -0.00000 0.00000 1.97499 -0.00001 0.00001 -70.00000 0.00000 -0.00000 -1.66580 -0.94211 -0.01376 29.55288 -0.27251 -0.48070 -17.21361 0.00832 0.00887 59.00594 5.16148 8.25053 -26.73620 -0.00541 0.00428 2.76344 1.02277 9.17228 -23.15478 0.00786 0.00700 -8.43275 -6.92420 17.89099 -4.87701 -1.04399 3.60800 24.66570 4.20854 9.07947 -2.66501 -0.00001 0.00001 0.00000 0.00000 -10.00000 -2.54301 -0.00002 0.00001 -0.00000 -0.00000 -15.00000 -9.23200 -0.30100 2.14400 20.00000 0.00000 0.00000 -4.22500 0.00001 -0.00001 25.00000 0.00000 0.00000 -2.65398 0.00001 0.00001 29.90550 2.49761 4.33288 -8.92001 0.00000 0.00000 20.00000 0.00000 0.00000 -4.86301 0.00000 0.00000 25.00000 0.00000 0.00000 -2.76499 -0.00001 0.00000 29.90549 2.49770 4.33288 -8.68901 -0.12600 -2.08700 20.00000 0.00000 0.00000 -4.53801 0.00000 0.00000 25.00000 0.00000 0.00000 -2.30501 -0.00002 0.00002 29.90549 2.49770 4.33288 -8.39100 -0.81704 -3.75800 20.00000 0.00000 0.00000 -3.04401 0.00001 -0.00001 25.00000 0.00000 0.00000 -1.97499 -0.00001 0.00000 29.90550 2.49761 4.33288 0.00492 0.78322 0.00544 0.00003 0.00732 0.00623 -0.00538 7.00149 0.01400 29.80387 27.55401 23.51317 
